<?xml version="1.0" encoding="UTF-8" standalone="no"?>
<!-- Created with Inkscape (http://www.inkscape.org/) -->

<svg
   viewBox="0 0 32 32"
   version="1.1"
   id="svg1"
   xmlns="http://www.w3.org/2000/svg"
   xmlns:svg="http://www.w3.org/2000/svg">
  <defs
     id="defs1" />
  <g
     id="layer1">
    <path
       style="stroke:#fefefe;fill:#010101;stroke-width:1.50531;stroke-linecap:round;stroke-linejoin:round;stroke-miterlimit:2.1;paint-order:stroke fill markers"
       id="rect1"
       width="17.419359"
       height="17.419359"
       x="1.5319526"
       y="13.473811"
       d="M 2.5319526,13.473811 H 17.951312 a 1,1 45 0 1 1,1 V 29.89317 a 1,1 135 0 1 -1,1 H 2.5319526 a 1,1 45 0 1 -1,-1 V 14.473811 a 1,1 135 0 1 1,-1 z" />
    <path
       style="stroke:#fefefe;fill:#010101;stroke-width:1.50531;stroke-linecap:round;stroke-linejoin:round;stroke-miterlimit:2.1;paint-order:stroke fill markers"
       id="rect2"
       width="17.419359"
       height="17.419359"
       x="7.9729509"
       y="7.4298182"
       d="M 8.9729509,7.4298182 H 24.39231 a 1,1 45 0 1 1,1 l 0,15.4193588 a 1,1 135 0 1 -1,1 H 8.9729509 a 1,1 45 0 1 -1,-1 V 8.4298182 a 1,1 135 0 1 1,-1 z"
       transform="translate(-0.93583643,0.02452421)" />
    <path
       style="stroke:#fefefe;fill:#010101;stroke-width:1.50531;stroke-linecap:round;stroke-linejoin:round;stroke-miterlimit:2.1;paint-order:stroke fill markers"
       id="rect3"
       width="17.419359"
       height="17.419359"
       x="12.542276"
       y="-18.854233"
       transform="scale(1,-1)"
       d="m 13.542276,-18.854233 h 15.41936 a 1,1 45 0 1 1,1 v 15.4193594 a 1,1 135 0 1 -1,1 h -15.41936 a 1,1 45 0 1 -1,-1 V -17.854233 a 1,1 135 0 1 1,-1 z" />
  </g>
</svg>
