<?xml version="1.0" encoding="UTF-8" standalone="no"?>
<!-- Created with Inkscape (http://www.inkscape.org/) -->

<svg
   viewBox="0 0 512 512"
   version="1.1"
   id="svg1"
   sodipodi:docname="logo.svg"
   width="512"
   height="512"
   inkscape:export-filename="logo-cut-up.png"
   inkscape:export-xdpi="96"
   inkscape:export-ydpi="96"
   xmlns:inkscape="http://www.inkscape.org/namespaces/inkscape"
   xmlns:sodipodi="http://sodipodi.sourceforge.net/DTD/sodipodi-0.dtd"
   xmlns:xlink="http://www.w3.org/1999/xlink"
   xmlns="http://www.w3.org/2000/svg"
   xmlns:svg="http://www.w3.org/2000/svg">
  <sodipodi:namedview
     id="namedview1"
     pagecolor="#ffffff"
     bordercolor="#111111"
     borderopacity="1"
     inkscape:showpageshadow="0"
     inkscape:pageopacity="0"
     inkscape:pagecheckerboard="1"
     inkscape:deskcolor="#d1d1d1" />
  <defs
     id="defs1">
    <linearGradient
       id="linearGradient11"
       inkscape:collect="always">
      <stop
         style="stop-color:#f8f8f8;stop-opacity:1;"
         offset="0"
         id="stop11" />
      <stop
         style="stop-color:#d9d9d9;stop-opacity:1;"
         offset="1"
         id="stop12" />
    </linearGradient>
    <linearGradient
       inkscape:collect="always"
       xlink:href="#linearGradient11"
       id="linearGradient12"
       x1="-5.7521043"
       y1="16.722454"
       x2="36.171398"
       y2="16.722454"
       gradientUnits="userSpaceOnUse"
       spreadMethod="repeat"
       gradientTransform="translate(1.2232567,-32.034693)" />
  </defs>
  <g
     id="layer1"
     style="stroke:#ffffff;stroke-opacity:1"
     transform="matrix(12.491489,0,0,12.491489,64.727356,50.728556)">
    <rect
       style="fill:url(#linearGradient12);stroke:none;stroke-width:0.0800545;stroke-linecap:round;stroke-linejoin:round;stroke-miterlimit:2.1;stroke-opacity:1;paint-order:stroke fill markers"
       id="rect11"
       width="41.923504"
       height="41.424412"
       x="-4.5288477"
       y="-36.024445"
       transform="rotate(90)" />
    <path
       d="m 22.438163,18.728404 h -9.0395 c -0.04966,3e-6 -0.09879,-0.0027 -0.14725,-0.0076 -0.04846,-0.0051 -0.09635,-0.01237 -0.143365,-0.02215 -0.09403,-0.01955 -0.184862,-0.04841 -0.271577,-0.08547 -0.08672,-0.03706 -0.169221,-0.08242 -0.246583,-0.134947 -0.07736,-0.05254 -0.149532,-0.112234 -0.2155,-0.178203 -0.06596,-0.06596 -0.125798,-0.138138 -0.178332,-0.2155 -0.05254,-0.07736 -0.09789,-0.159866 -0.134947,-0.246583 -0.03706,-0.08672 -0.0658,-0.177677 -0.08535,-0.271707 -0.0098,-0.04701 -0.01726,-0.09477 -0.02227,-0.143235 -0.0051,-0.04846 -0.0076,-0.0976 -0.0076,-0.14725 V 8.6621696 H 8.8383131 a 0.82828421,0.82828421 0 0 0 -0.4141652,0.110988 0.82828421,0.82828421 0 0 0 -0.3031773,0.303177 0.82828421,0.82828421 0 0 0 -0.110988,0.414165 V 22.262019 a 0.82828421,0.82828421 0 0 1 0,1.3e-4 0.82828421,0.82828421 0 0 0 0.110988,0.414035 0.82828421,0.82828421 0 0 0 0.3031773,0.303178 0.82828421,0.82828421 0 0 0 0.4141652,0.110987 H 21.609962 a 0.82828421,0.82828421 0 0 0 0.414036,-0.110987 0.82828421,0.82828421 0 0 0 0.303177,-0.303178 0.82828421,0.82828421 0 0 0 0.110988,-0.414035 0.82828421,0.82828421 0 0 1 0,-1.3e-4 z"
       style="display:inline;stroke:none;stroke-width:0.828284;stroke-linecap:round;stroke-linejoin:round;stroke-miterlimit:2.1;stroke-opacity:1;paint-order:stroke fill markers"
       id="path10" />
    <path
       d="m 17.736256,23.852081 h -9.0395 c -0.049656,3e-6 -0.098789,-0.0027 -0.1472499,-0.0076 -0.048463,-0.0051 -0.09635,-0.01238 -0.1433653,-0.02215 -0.094029,-0.01955 -0.1848614,-0.04841 -0.271577,-0.08547 -0.086716,-0.03706 -0.1692209,-0.08242 -0.2465826,-0.134947 -0.077362,-0.05254 -0.1495319,-0.112234 -0.2155005,-0.178203 -0.065965,-0.06596 -0.1257974,-0.138139 -0.1783321,-0.2155 -0.052538,-0.07736 -0.097886,-0.159867 -0.1349466,-0.246583 -0.037057,-0.08672 -0.065799,-0.177677 -0.085346,-0.271707 -0.00977,-0.04701 -0.017261,-0.09477 -0.022272,-0.143235 -0.00505,-0.04846 -0.00762,-0.0976 -0.00762,-0.14725 V 13.785844 H 4.1364053 a 0.82828421,0.82828421 0 0 0 -0.4141652,0.110989 0.82828421,0.82828421 0 0 0 -0.3031773,0.303177 0.82828421,0.82828421 0 0 0 -0.110988,0.414165 v 12.77152 a 0.82828421,0.82828421 0 0 1 0,1.3e-4 0.82828421,0.82828421 0 0 0 0.110988,0.414036 0.82828421,0.82828421 0 0 0 0.3031773,0.303177 0.82828421,0.82828421 0 0 0 0.4141652,0.110988 H 16.908054 a 0.82828421,0.82828421 0 0 0 0.414036,-0.110988 0.82828421,0.82828421 0 0 0 0.303177,-0.303177 0.82828421,0.82828421 0 0 0 0.110989,-0.414036 0.82828421,0.82828421 0 0 1 0,-1.3e-4 z"
       style="display:inline;stroke:none;stroke-width:0.828284;stroke-linecap:round;stroke-linejoin:round;stroke-miterlimit:2.1;stroke-opacity:1;paint-order:stroke fill markers"
       id="path11" />
    <path
       id="path1"
       style="color:#000000;display:inline;fill:#020202;fill-opacity:1;stroke:none;stroke-width:0.828284;stroke-linecap:round;stroke-linejoin:round;stroke-miterlimit:2.1;stroke-opacity:1;-inkscape-stroke:none;paint-order:stroke fill markers"
       d="M 13.54022,3.538495 A 0.82828421,0.82828421 0 0 0 12.71189,4.3668255 V 17.138345 a 0.82828421,0.82828421 0 0 0 0.82833,0.82833 h 12.77165 a 0.82828421,0.82828421 0 0 0 0.828201,-0.82833 V 4.3668255 A 0.82828421,0.82828421 0 0 0 26.31187,3.538495 Z" />
  </g>
</svg>
