<svg width="512" height="512" viewBox="0 0 512 512" fill="none" xmlns="http://www.w3.org/2000/svg">
<rect width="512" height="512" fill="white"/>
<rect x="220.773" y="85.3281" width="198.72" height="201.312" rx="13.824" fill="black"/>
<path d="M210.841 272.816V157.04H171.097C163.463 157.04 157.273 163.229 157.273 170.864V343.232C157.273 350.867 163.463 357.056 171.097 357.056H342.817C350.452 357.056 356.641 350.867 356.641 343.232V297.008H235.033C221.673 297.008 210.841 286.177 210.841 272.816Z" fill="black"/>
<path d="M146.901 343.232V227.456H107.157C99.5222 227.456 93.333 233.645 93.333 241.28V413.648C93.333 421.283 99.5222 427.472 107.157 427.472H278.877C286.512 427.472 292.701 421.283 292.701 413.648V367.424H171.093C157.732 367.424 146.901 356.593 146.901 343.232Z" fill="black"/>
</svg>
