<svg width="512" height="512" viewBox="0 0 512 512" fill="none" xmlns="http://www.w3.org/2000/svg">
<rect width="512" height="512" fill="white"/>
<rect x="211.864" y="42.5602" width="248.4" height="251.64" rx="17.28" fill="black"/>
<path d="M199.448 276.92V132.2H149.768C140.225 132.2 132.488 139.937 132.488 149.48V364.94C132.488 374.484 140.225 382.22 149.768 382.22H364.418C373.962 382.22 381.698 374.484 381.698 364.94V307.16H229.688C212.987 307.16 199.448 293.621 199.448 276.92Z" fill="black"/>
<path d="M119.523 364.94V220.22H69.8435C60.3 220.22 52.5635 227.957 52.5635 237.5V452.96C52.5635 462.504 60.3 470.24 69.8435 470.24H284.493C294.037 470.24 301.773 462.504 301.773 452.96V395.18H149.763C133.062 395.18 119.523 381.641 119.523 364.94Z" fill="black"/>
</svg>
