<svg xmlns="http://www.w3.org/2000/svg" width="1em" height="1em" viewBox="0 0 24 24">
	<path fill="currentColor" d="M10 12c2.21 0 4-1.79 4-4s-1.79-4-4-4s-4 1.79-4 4s1.79 4 4 4m0-6a2 2 0 1 1 0 4c-1.11 0-2-.89-2-2s.9-2 2-2m2 14H2v-3c0-2.67 5.33-4 8-4c1 0 2.38.19 3.71.56c-.3.56-.48 1.18-.5 1.83c-.98-.29-2.1-.49-3.21-.49c-2.97 0-6.1 1.46-6.1 2.1v1.1H12v.1zm8.8-3v-1.5c0-1.4-1.4-2.5-2.8-2.5s-2.8 1.1-2.8 2.5V17c-.6 0-1.2.6-1.2 1.2v3.5c0 .7.6 1.3 1.2 1.3h5.5c.7 0 1.3-.6 1.3-1.2v-3.5c0-.7-.6-1.3-1.2-1.3m-1.3 0h-3v-1.5c0-.8.7-1.3 1.5-1.3s1.5.5 1.5 1.3z" />
</svg>