<svg xmlns="http://www.w3.org/2000/svg" width="1em" height="1em" viewBox="0 0 32 32">
    <path fill="currentColor" d="m3.677 32l.885-.193a91.817 91.817 0 0 1 2.099-.411c.323-.057.641-.109.964-.172l.072-.021c.333-.057.663-.12.996-.156l1.619-.24V0h-.057a99.89 99.89 0 0 0-2.509.047c-.923.027-1.86.079-2.781.141c-.396.025-.797.063-1.199.093h-.057v31.708zM11.88.021v30.588a76.267 76.267 0 0 1 3.443-.328a82.852 82.852 0 0 1 8.5-.203c1.5.047 3 .135 4.495.26V2.005a73.689 73.689 0 0 0-4.036-.812a84.451 84.451 0 0 0-7.927-.975a79.334 79.334 0 0 0-4.469-.197zm14.355 19.728l-.063-.004l-.751-.084a81.008 81.008 0 0 0-5.609-.385a84.533 84.533 0 0 0-5.629.021h-.057c-.063 0-.12 0-.183-.021a.8.8 0 0 1-.355-.197a.772.772 0 0 1-.135-.886c.036-.057.083-.136.135-.177a.888.888 0 0 1 .193-.141c.083-.036.161-.057.24-.077h.119c.261 0 .521-.021.761-.021a87.265 87.265 0 0 1 5.557.036c1.921.084 3.823.224 5.719.443l.203.021c.057.021.115.021.177.036c.14.063.26.141.344.245c.057.057.093.136.135.219a.487.487 0 0 1 .063.24a.764.764 0 0 1-.219.599c-.063.063-.125.099-.183.14c-.061.043-.14.057-.219.079c-.041.021-.063.021-.119.021h-.063zm.046-3.613c-.063 0-.063 0-.125-.011l-.74-.095a65.883 65.883 0 0 0-5.593-.479a75.09 75.09 0 0 0-5.62-.079l-.063-.02c-.057-.021-.119-.021-.176-.041a.74.74 0 0 1-.339-.219c-.041-.063-.104-.141-.12-.199a.765.765 0 0 1 .016-.697a.818.818 0 0 1 .14-.204c.057-.057.12-.12.199-.135c.083-.041.161-.084.239-.084l.12-.02l.781-.021a84.83 84.83 0 0 1 5.536.12a77.46 77.46 0 0 1 5.719.52l.204.021l.12.021a.68.68 0 0 1 .359.219c.161.161.24.38.219.599c0 .083-.02.161-.057.219c-.041.084-.083.141-.12.203c-.041.057-.099.1-.181.163c-.057.036-.141.056-.219.077l-.12.021h-.057zm0-3.615c-.063 0-.063 0-.125-.011l-.74-.104a79.94 79.94 0 0 0-5.593-.573a83.935 83.935 0 0 0-5.62-.172h-.063l-.119-.021a.938.938 0 0 1-.219-.088a.86.86 0 0 1-.381-.583c0-.084 0-.163.021-.24a.999.999 0 0 1 .079-.229a.939.939 0 0 1 .161-.193a.773.773 0 0 1 .38-.197a.714.714 0 0 1 .183-.021h.76a81.551 81.551 0 0 1 11.276.838l.197.027c.063.011.084.011.12.025a.76.76 0 0 1 .219.109c.084.043.141.1.183.163c.041.061.079.135.12.213a.777.777 0 0 1-.041.635a.687.687 0 0 1-.141.199a.712.712 0 0 1-.359.197c-.037.016-.057.016-.12.021l-.057.005zm0-3.614c-.063 0-.063 0-.125-.011l-.74-.12a64.644 64.644 0 0 0-5.593-.661a87.322 87.322 0 0 0-5.62-.281h-.063L14 7.818c-.079-.02-.151-.063-.219-.099c-.073-.041-.131-.104-.188-.161c-.047-.063-.088-.141-.124-.197a1.238 1.238 0 0 1-.057-.245a.819.819 0 0 1 .239-.656a.832.832 0 0 1 .376-.204c.056-.015.119-.015.176-.015a80.977 80.977 0 0 1 6.5.339c1.849.156 3.693.395 5.527.697l.183.021c.052 0 .067 0 .119.015c.084.027.147.063.219.104c.063.037.12.1.168.157c.119.181.176.4.14.62a.923.923 0 0 1-.084.223a.73.73 0 0 1-.161.177a.827.827 0 0 1-.359.204h-.183zM5.385 8.224a.804.804 0 0 1-.802-.755c0-.079.02-.152.041-.219a.669.669 0 0 1 .12-.256a.818.818 0 0 1 .219-.213a.957.957 0 0 1 .323-.125l.64-.057c.876-.077 1.74-.14 2.6-.192h.077c.141.005.26.031.36.093c.26.136.421.407.421.693a.773.773 0 0 1-.041.213a.577.577 0 0 1-.12.249c-.057.104-.141.161-.219.224a.971.971 0 0 1-.323.12c-.136.021-.276.021-.417.036c-.183.021-.38.021-.583.043l-1.557.119l-.38.043c-.079.02-.161.02-.261.02zM26.26 5.292l-.124-.016l-.735-.131a86.302 86.302 0 0 0-5.62-.755a87.365 87.365 0 0 0-5.62-.36h-.063l-.12-.025a.932.932 0 0 1-.219-.093a1.01 1.01 0 0 1-.176-.163a.734.734 0 0 1-.163-.671c.021-.084.057-.161.1-.24c.041-.084.099-.141.161-.203a.82.82 0 0 1 .38-.199c.057-.021.12-.021.177-.021l.781.021c1.859.079 3.697.199 5.536.401c1.921.197 3.817.479 5.719.797l.197.02c.063 0 .084 0 .12.021c.084.02.161.063.224.099a.838.838 0 0 1 .319.563c.02.077 0 .156-.021.24a.394.394 0 0 1-.079.219a1.26 1.26 0 0 1-.14.181a.669.669 0 0 1-.38.177l-.115.021h-.063zM5.364 4.265a.821.821 0 0 1-.333-.072a.938.938 0 0 1-.249-.183a.818.818 0 0 1-.203-.453a.79.79 0 0 1 .687-.86c.213-.015.423-.015.631-.036c.869-.063 1.735-.099 2.599-.14h.068c.12.02.24.041.339.099c.239.14.401.421.401.697a.681.681 0 0 1-.043.224a1.313 1.313 0 0 1-.135.261a.668.668 0 0 1-.245.197a.639.639 0 0 1-.339.099c-.14.021-.281.021-.443.021L7.5 4.16c-.536.036-1.057.057-1.579.099l-.4.021c-.1.021-.177.021-.261.021z" />
</svg>