<svg xmlns="http://www.w3.org/2000/svg" width="1em" height="1em" viewBox="0 0 24 24">
	<g fill="none" stroke="currentColor" stroke-linecap="round" stroke-linejoin="round" stroke-width="1.5">
		<path d="M21.25 13V8.5a5 5 0 0 0-5-5h-8.5a5 5 0 0 0-5 5v7a5 5 0 0 0 5 5h6.26" />
		<path d="m3.01 17l2.74-3.2a2.2 2.2 0 0 1 2.77-.27a2.2 2.2 0 0 0 2.77-.27l2.33-2.33a4 4 0 0 1 5.16-.43l2.47 1.91M8.01 10.17a1.66 1.66 0 1 0-.02-3.32a1.66 1.66 0 0 0 .02 3.32m8.49 7.759l1.407 1.407a.531.531 0 0 0 .757 0L21.5 16.5" />
	</g>
</svg>