<svg width="820" height="240" viewBox="0 0 820 240" fill="none" xmlns="http://www.w3.org/2000/svg">
<path d="M209.345 35V65.78L194.805 69.53L185.695 58.56L180.885 68.02C170.965 65.32 157.305 63.58 138.515 63.58C119.725 63.58 106.065 65.33 96.1451 68.02L91.3351 58.56L82.2251 69.53L67.6851 65.78V35C67.6851 35 43.1951 55.67 38.5251 83.61L70.665 94.73C71.715 114.16 80.4551 166.61 82.9551 171.37C85.6151 176.44 99.735 190.93 110.785 196.5C110.785 196.5 114.785 192.27 117.225 188.54C120.325 192.19 136.335 204.99 138.525 204.99C140.715 204.99 156.725 192.19 159.825 188.54C162.265 192.27 166.265 196.5 166.265 196.5C177.315 190.93 191.435 176.44 194.095 171.37C196.595 166.61 205.335 114.16 206.385 94.73L238.525 83.61C233.835 55.67 209.345 35 209.345 35ZM192.305 128.36L170.555 130.3L172.465 156.97C172.465 156.97 159.235 167.92 138.505 167.92C117.775 167.92 104.545 156.97 104.545 156.97L106.455 130.3L84.7051 128.36L80.9851 98.32L117.035 110.8L114.235 148.19C120.935 149.89 127.985 151.58 138.515 151.58C149.045 151.58 156.085 149.89 162.785 148.19L159.985 110.8L196.035 98.32L192.315 128.36H192.305Z" fill="#183134"/>
<path d="M277.805 84.42L308.875 88.24V177.83H336.835V88.24L367.735 84.42V62.17H277.805V84.42Z" fill="#183134"/>
<path d="M444.085 131.53C444.085 144.57 437.725 153.76 424.495 153.76C411.265 153.76 404.565 144.74 404.565 131.7V62.17H376.605V131.7C376.605 160.61 391.505 180 424.165 180C456.825 180 472.055 159.44 472.055 131.53V62.17H444.095V131.53H444.085Z" fill="#183134"/>
<path d="M562.135 96.6C562.135 74.71 549.905 62.17 525.635 62.17H485.785V177.82H513.585V130.35H521.125L543.895 177.82H573.865L547.405 125.01C556.785 119.33 562.145 109.47 562.145 96.6H562.135ZM523.285 107.63H513.575V86.24H523.285C529.475 86.24 533.325 90.42 533.325 96.77C533.325 103.12 529.645 107.63 523.285 107.63Z" fill="#183134"/>
<path d="M626.265 109.47L611.695 103.79C603.825 100.78 601.145 97.44 601.145 92.59C601.145 87.74 604.325 83.9 610.695 83.9C617.065 83.9 620.905 88.91 620.745 96.1H646.525C647.705 75.54 637.825 60 610.525 60C587.925 60 573.185 74.04 573.185 94.26C573.185 108.3 579.375 119.66 591.105 125.68C597.465 128.86 603.325 131.03 609.185 133.37C616.715 136.21 621.405 139.39 621.405 145.9C621.405 152.41 616.715 156.1 610.355 156.1C601.145 156.1 598.295 148.91 598.635 141.56H572.175C571.175 158.44 577.195 180 610.355 180C633.625 180 650.205 166.3 650.205 142.9C650.205 125.69 641.325 115.66 626.255 109.47H626.265Z" fill="#183134"/>
<path d="M716.355 60C680.695 60 656.245 86.57 656.245 120.17C656.245 153.77 679.355 180 717.195 180C755.035 180 777.815 153.43 777.815 119.67C777.815 85.91 754.205 60 716.355 60ZM717.025 153.93C697.765 153.93 685.545 139.06 685.545 120C685.545 100.94 696.435 86.07 716.855 86.07C737.275 86.07 748.505 101.11 748.505 120C748.505 138.89 737.455 153.93 717.025 153.93Z" fill="#183134"/>
</svg>
