<svg width="820" height="240" viewBox="0 0 820 240" fill="none" xmlns="http://www.w3.org/2000/svg">
  <path d="M138 205C135.81 205 119.8 192.2 116.7 188.55C114.26 192.28 110.26 196.51 110.26 196.51C99.21 190.94 85.09 176.45 82.43 171.38C79.81 166.38 70.3 108.8 70.04 92.08C69.7 82.67 75.89 63.59 138 63.59C200.11 63.59 206.29 82.67 205.96 92.08C205.71 108.8 196.2 166.38 193.57 171.38C190.91 176.45 176.79 190.94 165.74 196.51C165.74 196.51 161.74 192.28 159.3 188.55C156.2 192.2 140.19 205 138 205Z" fill="#1EBCA1"/>
  <path d="M138 167.92C117.27 167.92 104.04 156.97 104.04 156.97L105.95 130.3L84.2 128.36L80.29 96.8101H195.72L191.81 128.36L170.06 130.3L171.97 156.97C171.97 156.97 158.74 167.92 138.01 167.92H138Z" fill="#183134"/>
  <path d="M159.48 110.79L238 83.61C233.33 55.67 208.84 35 208.84 35V65.78L194.3 69.53L185.19 58.56L177.39 73.9L138.01 84.06L98.63 73.9L90.83 58.56L81.72 69.53L67.18 65.78V35C67.18 35 42.67 55.67 38 83.61L116.52 110.79L113.72 148.18C120.42 149.88 127.47 151.57 138 151.57C148.53 151.57 155.57 149.88 162.27 148.18L159.47 110.79H159.48Z" fill="#4FF8D2"/>
  <path d="M336.33 88.24V177.82H308.37V88.24L277.31 84.42V62.17H367.23V84.42L336.33 88.24Z" fill="#4FF7D1"/>
  <path d="M376.1 131.7V62.17H404.06V131.7C404.06 144.74 410.26 153.76 423.99 153.76C437.72 153.76 443.58 144.57 443.58 131.53V62.17H471.54V131.53C471.54 159.44 455.47 180 423.65 180C391.83 180 376.09 160.61 376.09 131.7H376.1Z" fill="#4FF7D1"/>
  <path d="M546.89 125.01L573.35 177.82H543.38L520.61 130.35H513.07V177.82H485.27V62.17H525.12C549.4 62.17 561.62 74.71 561.62 96.6C561.62 109.47 556.26 119.33 546.88 125.01H546.89ZM513.07 86.24V107.63H522.78C529.14 107.63 532.82 103.28 532.82 96.77C532.82 90.26 528.97 86.24 522.78 86.24H513.07Z" fill="#4FF7D1"/>
  <path d="M611.19 103.79L625.76 109.47C640.83 115.65 649.71 125.68 649.71 142.9C649.71 166.3 633.13 180 609.86 180C576.7 180 570.68 158.44 571.68 141.56H598.14C597.81 148.91 600.65 156.1 609.86 156.1C616.22 156.1 620.91 152.59 620.91 145.9C620.91 139.21 616.22 136.21 608.69 133.37C602.83 131.03 596.97 128.86 590.61 125.68C578.89 119.66 572.69 108.3 572.69 94.26C572.69 74.04 587.42 60 610.03 60C637.33 60 647.21 75.54 646.03 96.1H620.25C620.42 88.91 616.73 83.9 610.2 83.9C603.67 83.9 600.65 87.74 600.65 92.59C600.65 97.44 603.33 100.78 611.2 103.79H611.19Z" fill="#4FF7D1"/>
  <path d="M715.85 60C753.7 60 777.31 85.91 777.31 119.67C777.31 153.43 753.86 180 716.69 180C679.52 180 655.74 154.1 655.74 120.17C655.74 86.24 680.19 60 715.85 60ZM716.52 153.93C736.95 153.93 748 138.89 748 120C748 101.11 736.28 86.07 716.35 86.07C696.42 86.07 685.04 101.11 685.04 120C685.04 138.89 697.26 153.93 716.52 153.93Z" fill="#4FF7D1"/>
</svg>
